<svg xmlns="http://www.w3.org/2000/svg" xmlns:xlink="http://www.w3.org/1999/xlink" width="26" height="26" viewBox="0 0 26 26">
  <defs>
    <clipPath id="clip-path">
      <rect id="Rectangle_359" data-name="Rectangle 359" width="26" height="26" transform="translate(250 1068)" fill="#973ab2"/>
    </clipPath>
  </defs>
  <g id="Mask_Group_3" data-name="Mask Group 3" transform="translate(-250 -1068)" clip-path="url(#clip-path)">
    <path id="a0c8003b87c1ba6104087e63d519ba05" d="M25.683,11.688,21.892,7.9a1.134,1.134,0,0,0-1.538,0L9.944,18.317a1.117,1.117,0,0,0-.3.552l-.953,4.745a1.1,1.1,0,0,0,.292.986,1.091,1.091,0,0,0,.769.314,1.468,1.468,0,0,0,.217-.022l4.745-.953a1.117,1.117,0,0,0,.552-.3l10.421-10.41A1.092,1.092,0,0,0,25.683,11.688ZM13.963,21.881l-2.827.563.563-2.827,5.589-5.579L19.552,16.3Zm7.117-7.106-2.264-2.264,2.307-2.318,2.264,2.264ZM6.5,24.914c-2.253,0-6.5-1.354-6.5-6.5,0-4.062,3.553-5.633,6.413-6.9,2.751-1.213,4.42-2.08,4.42-3.845A3.271,3.271,0,0,0,9.857,5,4.4,4.4,0,0,0,6.716,4.4a1.083,1.083,0,0,1-.433-2.123,6.509,6.509,0,0,1,4.939,1.051,5.327,5.327,0,0,1,1.766,4.344c0,3.293-3.033,4.636-5.709,5.828-3.185,1.408-5.124,2.448-5.124,4.918,0,4.279,4.16,4.333,4.333,4.333a1.083,1.083,0,1,1,0,2.166Z" transform="translate(250 1067.459)" fill="#973ab2"/>
  </g>
</svg>
