<svg xmlns="http://www.w3.org/2000/svg" xmlns:xlink="http://www.w3.org/1999/xlink" width="22" height="22" viewBox="0 0 22 22">
  <defs>
    <clipPath id="clip-path">
      <rect id="Rectangle_359" data-name="Rectangle 359" width="22" height="22" transform="translate(252 1070)" fill="#eb8869"/>
    </clipPath>
  </defs>
  <g id="Mask_Group_4" data-name="Mask Group 4" transform="translate(-252 -1070)" clip-path="url(#clip-path)">
    <g id="_404a274c9d0cf4ad7d89631d106bfaf6" data-name="404a274c9d0cf4ad7d89631d106bfaf6" transform="translate(251.841 1069.841)">
      <path id="Path_275" data-name="Path 275" d="M18.537,10.566a.8.8,0,0,1-.8-.8V7.518c0-3.188-2.946-5.739-6.568-5.739S4.6,4.362,4.6,7.518V9.769a.8.8,0,0,1-1.594,0V7.518C3.01,3.463,6.677.159,11.172.159s8.162,3.3,8.162,7.359V9.769a.791.791,0,0,1-.8.8Z" fill="#eb8869"/>
      <path id="Path_276" data-name="Path 276" d="M16.382,18.066a.8.8,0,0,1-.8-.8V9.7a.8.8,0,0,1,.8-.772,4.807,4.807,0,0,1,4.987,4.585A4.781,4.781,0,0,1,16.382,18.066Zm.8-7.486v5.809a3.1,3.1,0,0,0,2.589-2.9,3.1,3.1,0,0,0-2.589-2.908ZM5.937,18.066A4.8,4.8,0,0,1,.95,13.487,4.786,4.786,0,0,1,5.937,8.928a.8.8,0,0,1,.8.8v7.544A.8.8,0,0,1,5.937,18.066Zm-.8-7.486a3.1,3.1,0,0,0-2.589,2.908,3.1,3.1,0,0,0,2.589,2.9Z" fill="#eb8869"/>
      <path id="Path_277" data-name="Path 277" d="M16.121,20.661h-2.64a.8.8,0,0,1,0-1.594h2.64a1.556,1.556,0,0,0,1.556-1.556V17.16a.8.8,0,0,1,1.594,0v.351a3.15,3.15,0,0,1-3.15,3.15Z" fill="#eb8869"/>
      <path id="Path_278" data-name="Path 278" d="M12.116,22.159H10.541A2.181,2.181,0,0,1,8.36,19.979v-.089a2.181,2.181,0,0,1,2.181-2.174h1.575a2.174,2.174,0,0,1,2.174,2.174v.089a2.181,2.181,0,0,1-2.175,2.181Zm-1.562-2.85a.587.587,0,0,0-.587.58v.089a.587.587,0,0,0,.587.587h1.562a.587.587,0,0,0,.58-.587v-.089a.58.58,0,0,0-.58-.58Z" fill="#eb8869"/>
    </g>
  </g>
</svg>
