<svg xmlns="http://www.w3.org/2000/svg" xmlns:xlink="http://www.w3.org/1999/xlink" width="26" height="26" viewBox="0 0 26 26">
  <defs>
    <clipPath id="clip-path">
      <rect id="Rectangle_359" data-name="Rectangle 359" width="26" height="26" transform="translate(250.727 1068.727)" fill="#14b169"/>
    </clipPath>
  </defs>
  <g id="Group_1" data-name="Group 1" transform="translate(-250.727 -1068.727)" clip-path="url(#clip-path)">
    <path id="Union_3" data-name="Union 3" d="M11.025,25.454H7.638a.85.85,0,0,1-.088-1.7l0,0a.822.822,0,0,1,.084,0h3.387a.847.847,0,0,1,.085,0l0,0a.85.85,0,0,1-.076,1.7Zm-5.087-3.4a2.558,2.558,0,0,1-2.545-2.545V16.465a9.332,9.332,0,1,1,11.877,0v3.048a2.558,2.558,0,0,1-2.545,2.545Zm0-1.7h6.787a.828.828,0,0,0,.849-.848V16.967H5.091v2.546A.828.828,0,0,0,5.938,20.36Zm8.159-5.09a7.615,7.615,0,0,0,.638-11.342l-.085-.084L14.6,3.8q-.1-.092-.2-.18l-.031-.028A7.627,7.627,0,0,0,9.39,1.7H9.226a7.618,7.618,0,0,0-4.66,13.574H14.1ZM8.967,13.458a.85.85,0,0,1-.4-1.112L9.655,10.18H7.638a.848.848,0,0,1-.764-1.228l1.7-3.4a.847.847,0,0,1,.722-.474h0a.848.848,0,0,1,.8,1.234L9.01,8.482h2.015a.848.848,0,0,1,.766,1.228l-1.7,3.4a.849.849,0,0,1-1.125.353Z" transform="translate(254.395 1069)" fill="#14b169"/>
  </g>
</svg>
