<svg xmlns="http://www.w3.org/2000/svg" xmlns:xlink="http://www.w3.org/1999/xlink" width="46" height="46" viewBox="0 0 46 46">
  <defs>
    <clipPath id="clip-path">
      <rect id="Rectangle_354" data-name="Rectangle 354" width="46" height="46" rx="8" transform="translate(240 1058)" fill="#10393b" opacity="0.2"/>
    </clipPath>
  </defs>
  <g id="Group_242" data-name="Group 242" transform="translate(-240 -1058)">
    <g id="Mask_Group_9" data-name="Mask Group 9" clip-path="url(#clip-path)">
      <g id="XMLID_71_" transform="translate(243.291 1062.095)">
        <path id="XMLID_89_" d="M27.615,13.046a3.711,3.711,0,0,1-3.758-3.662V3.648L7.867,3.6a.777.777,0,0,0-.768.738v30.4a.825.825,0,0,0,.8.753H32.931a.711.711,0,0,0,.672-.753v-21.7ZM15.958,29.361a1.477,1.477,0,1,1-2.953,0V13.415a1.477,1.477,0,1,1,2.953,0Zm5.906,0a1.477,1.477,0,1,1-2.953,0V17.254a1.477,1.477,0,1,1,2.953,0Zm5.906,0a1.477,1.477,0,1,1-2.953,0V21.093a1.477,1.477,0,1,1,2.953,0Z" transform="translate(-0.641 -0.641)" fill="none"/>
        <path id="XMLID_113_" d="M31.9,10.527h3.839L31.092,6.039V9.826A.782.782,0,0,0,31.9,10.527Z" transform="translate(-4.923 -1.076)" fill="none"/>
        <path id="XMLID_116_" d="M35.191,9.584,26.206.888a2.967,2.967,0,0,0-2.06-.834L7.225.009A3.709,3.709,0,0,0,3.5,3.7V34.1a3.781,3.781,0,0,0,3.758,3.7H32.289a3.668,3.668,0,0,0,3.625-3.706V11.349A2.428,2.428,0,0,0,35.191,9.584ZM26.169,4.963l4.644,4.489H26.974a.782.782,0,0,1-.8-.709Zm6.12,29.885H7.262a.819.819,0,0,1-.8-.753V3.7a.777.777,0,0,1,.768-.738l15.991.044V8.743A3.716,3.716,0,0,0,26.974,12.4h5.987v21.69A.711.711,0,0,1,32.289,34.848Z" fill="#10393b"/>
        <path id="XMLID_223_" d="M15.764,13.749a1.481,1.481,0,0,0-1.477,1.477V31.172a1.477,1.477,0,0,0,2.953,0V15.225A1.481,1.481,0,0,0,15.764,13.749Z" transform="translate(-1.924 -2.452)" fill="#10393b"/>
        <path id="XMLID_305_" d="M22.953,18.422A1.481,1.481,0,0,0,21.477,19.9V32.006a1.477,1.477,0,0,0,2.953,0V19.9A1.481,1.481,0,0,0,22.953,18.422Z" transform="translate(-3.207 -3.286)" fill="#10393b"/>
        <path id="XMLID_307_" d="M30.142,23.094a1.481,1.481,0,0,0-1.477,1.477v8.269a1.477,1.477,0,0,0,2.953,0V24.571A1.481,1.481,0,0,0,30.142,23.094Z" transform="translate(-4.49 -4.119)" fill="#10393b"/>
      </g>
    </g>
  </g>
</svg>
