<svg xmlns="http://www.w3.org/2000/svg" xmlns:xlink="http://www.w3.org/1999/xlink" width="26" height="26" viewBox="0 0 26 26">
  <defs>
    <clipPath id="clip-path">
      <rect id="Rectangle_359" data-name="Rectangle 359" width="26" height="26" transform="translate(250 1068)" fill="#4a74cc"/>
    </clipPath>
  </defs>
  <g id="Mask_Group_2" data-name="Mask Group 2" transform="translate(-250 -1068)" clip-path="url(#clip-path)">
    <g id="_4a353f9645e9d818a8e7269503706dd0" data-name="4a353f9645e9d818a8e7269503706dd0" transform="translate(249.925 1067.942)">
      <path id="Path_272" data-name="Path 272" d="M3.765,6.014v8.715a9.31,9.31,0,0,0,18.62,0V6.014l-9.31-3.882ZM18.936,10.3a1.017,1.017,0,0,1-.285,1.409L11.32,16.585a.324.324,0,0,1-.071.041l-.031.015a.3.3,0,0,0-.041.02l-.031.015-.046.015c-.01.005-.02.005-.031.01l-.046.015c-.01.005-.02.005-.031.01s-.036.005-.051.01-.015.005-.025.005a.248.248,0,0,1-.061.005h-.02c-.025,0-.051.005-.081.005h-.081a.1.1,0,0,1-.036-.005.046.046,0,0,1-.025-.005c-.01,0-.025-.005-.036-.005s-.015-.005-.02-.005a.094.094,0,0,1-.036-.01c-.005,0-.015-.005-.02-.005s-.025-.005-.036-.01-.015-.005-.02-.005a.094.094,0,0,0-.036-.01c-.005,0-.015-.005-.02-.005l-.036-.015c-.005-.005-.01-.005-.015-.01a.128.128,0,0,1-.036-.02c-.005-.005-.01-.005-.015-.01s-.025-.015-.041-.02-.01-.005-.015-.01a.469.469,0,0,0-.041-.025c-.005,0-.005-.005-.01-.005s-.031-.025-.046-.036-.015-.015-.025-.02a.04.04,0,0,1-.02-.02c-.01-.005-.015-.015-.025-.025s-.015-.01-.02-.02l-.025-.025c-.005-.005-.01-.015-.02-.02s-.015-.015-.02-.025-.01-.01-.01-.015L7.682,13.533A1.017,1.017,0,1,1,9.27,12.261l1.7,2.116,6.558-4.36A1.012,1.012,0,0,1,18.936,10.3Z" fill="none"/>
      <path id="Path_273" data-name="Path 273" d="M23.428,4.243,13.706.188a1.586,1.586,0,0,0-1.257,0L2.732,4.238a1.623,1.623,0,0,0-1,1.5v8.99a11.345,11.345,0,0,0,22.691,0V5.734a1.62,1.62,0,0,0-.992-1.491ZM22.385,14.728a9.31,9.31,0,0,1-18.62,0V6.014l9.31-3.882,9.31,3.882Z" fill="#4a74cc"/>
      <path id="Path_274" data-name="Path 274" d="M9.27,12.261a1.017,1.017,0,0,0-1.587,1.272l2.279,2.844c.005.005.01.01.01.015s.015.015.02.025.01.015.02.02l.025.025c.005.005.015.01.02.02l.025.025.02.02c.01.005.015.015.025.02s.031.025.046.036.005.005.01.005a.469.469,0,0,0,.041.025c.005.005.01.005.015.01s.025.015.041.02.01.005.015.01a.128.128,0,0,1,.036.02c.005.005.01.005.015.01l.036.015c.005,0,.01.005.02.005a.094.094,0,0,0,.036.01c.005,0,.015.005.02.005s.025.005.036.01.015.005.02.005.025.005.036.01.015.005.02.005.025.005.036.005a.046.046,0,0,1,.025.005.1.1,0,0,1,.036.005h.081a.466.466,0,0,0,.081-.005h.02c.02,0,.041-.005.061-.005s.015-.005.025-.005.036-.005.051-.01a.072.072,0,0,0,.031-.01l.046-.015c.01-.005.02-.005.031-.01l.046-.015.031-.015a.3.3,0,0,0,.041-.02l.031-.015.071-.041,7.331-4.874a1.017,1.017,0,0,0-1.124-1.694l-6.558,4.36L9.27,12.261Z" fill="#4a74cc"/>
    </g>
  </g>
</svg>
