<svg xmlns="http://www.w3.org/2000/svg" width="144.619" height="48" viewBox="0 0 144.619 48">
  <g id="Insafe" transform="translate(-0.01 0)">
    <path id="Path_295" data-name="Path 295" d="M204.333,254a8.174,8.174,0,0,1,6.033,2.978l12.852,16.166V257.228c0-1.416-.745-2.349-1.825-2.349h-.112V254h3.575c2.2,0,3.639,1.6,3.639,3.986v21.157l-.56.3a5.073,5.073,0,0,1-2.5.633,5.271,5.271,0,0,1-4.171-2.085l-13.484-17.1v28.48h-1c-2.57,0-4.283-1.864-4.283-4.658V257.04c-.036-1.3-.784-2.2-1.864-2.2h-.109V254Z" transform="translate(-189.954 -242.22)" fill="#185f6c"/>
    <path id="Path_296" data-name="Path 296" d="M337.98,256.24H327.365c-2.682,0-4.759.893-4.759,3.015s2.8,2.757,6.184,3.466c4.8,1,10.839,2.24,10.839,8.381,0,5.624-5.363,7.9-11.25,7.9h-7.642c-2.57,0-4.286-1.864-4.286-4.694v-.26h12.516c2.721,0,4.806-.857,4.806-2.8,0-2.273-2.869-2.942-6.259-3.687-4.8-1.081-10.688-2.421-10.688-8.457,0-5.475,4.84-7.821,10.131-7.821l7.373.036c2.2,0,3.639,1.6,3.639,3.986Z" transform="translate(-273.431 -240.262)" fill="#185f6c"/>
    <path id="Path_297" data-name="Path 297" d="M421.187,272.991c-2.125,0-3.538-1.562-3.538-3.871l-.036-.784h11.1V266.51c0-7.485-6.968-8.23-10.654-8.23-.6,0-1.12,0-1.489.036h-.448v21.454h-.893c-2.645,0-4.395-1.937-4.395-4.843v-18.1a2.019,2.019,0,0,0-1.9-2.273h-.112v-.843h2.049c.672,0,1.416-.036,2.239-.036,1.008-.039,2.125-.076,3.317-.076,7.525,0,17.58,1.3,17.58,12.924V289.1h-.857c-2.645,0-4.431-1.937-4.431-4.843V272.991Z" transform="translate(-339.944 -241.932)" fill="#185f6c"/>
    <path id="Path_298" data-name="Path 298" d="M528.435,254c2.161,0,3.578,1.565,3.578,3.874v.745H516.255v30.793h-1.12c-2.5,0-4.135-1.825-4.135-4.543V257.116c0-1.341-.745-2.273-1.789-2.273H509.1V254Zm-7.525,16.723a3.545,3.545,0,0,1-3.575-3.871v-.784h8.79c2.125,0,3.538,1.565,3.538,3.874v.781Z" transform="translate(-412.152 -242.22)" fill="#185f6c"/>
    <path id="Path_299" data-name="Path 299" d="M624.719,258.738H607.733c-2.57,0-4.283-1.864-4.283-4.658l5.288.039h12.317c2.2,0,3.639,1.562,3.639,3.983Zm0,10.688H607.733c-2.57,0-4.283-1.9-4.283-4.692l17.619.036c2.2,0,3.639,1.6,3.639,3.986Zm0,10.691H607.733c-2.57,0-4.283-1.862-4.283-4.692l17.619.036c2.2,0,3.639,1.6,3.639,3.986Z" transform="translate(-480.091 -242.278)" fill="#185f6c"/>
    <path id="Path_300" data-name="Path 300" d="M167.622,211.92a4.815,4.815,0,0,1,.493,9.6,4.124,4.124,0,0,1-.493.02,4.812,4.812,0,1,1,0-9.624Z" transform="translate(-162.8 -211.92)" fill="#185f6c"/>
    <path id="Path_301" data-name="Path 301" d="M172.637,329.315V311.87l-5.5,3.06v14.019a1.509,1.509,0,1,0,.943,0V315.492l3.589-2v15.8a1.184,1.184,0,1,0,.957.014Z" transform="translate(-165.172 -283.891)" fill="#185f6c"/>
    <path id="Path_302" data-name="Path 302" d="M12.512,40.56H7.02V59.436l5.492-3.06Z" transform="translate(-5.048 -29.206)" fill="#185f6c"/>
    <path id="Path_303" data-name="Path 303" d="M624.687,296.784H607.7c-2.57,0-4.283-1.9-4.283-4.694l17.616.036c2.2,0,3.639,1.6,3.639,3.986Z" transform="translate(-480.069 -269.648)" fill="#185f6c"/>
  </g>
</svg>
